<svg
  xmlns="http://www.w3.org/2000/svg"
  xmlns:xlink="http://www.w3.org/1999/xlink"
  viewBox="0 0 100 100"

  fill="#fd8"
  stroke="#b72"
>

  <g
    transform-origin="50 50"
  >
    <circle
      stroke-width="6"
      cx="50"
      cy="50"
      r="47"
    />
    <g
      transform-origin="50 50"
      transform="scale(0.667)"
      stroke-width="4"
      fill="none"
    >
      <path
        d="
        M 26 8
        v -2
        a 4 4 0 0 1 4 -4
        h 56
        a 4 4 0 0 1 4 4
        v 72
        a 4 4 0 0 1 -4 4
        h -4
        v 4
        a 4 4 0 0 1 -4 4
        h -4
        v 4
        a 4 4 0 0 1 -4 4
        h -56
        a 4 4 0 0 1 -4 -4
        v -72
        a 4 4 0 0 1 4 -4
        h 46
        l 14 14
        v 56
        M 18 16
        v -2
        a 4 4 0 0 1 4 -4
        h 56
        a 4 4 0 0 1 4 4
        v 66
        M 59 20
        v 10
        a 2 2 0 0 0 2 2
        h 11
        "
      />
    </g>

  </g>
</svg>